<svg width="60" height="58" viewBox="0 0 60 58" fill="none" xmlns="http://www.w3.org/2000/svg">
<path d="M36.1751 18.1975C36.3468 18.3756 36.5538 18.5184 36.7838 18.6175C37.0138 18.7165 37.262 18.7698 37.5138 18.7741C37.7656 18.7784 38.0156 18.7336 38.2491 18.6425C38.4826 18.5513 38.6947 18.4156 38.8727 18.2435C39.0507 18.0714 39.1911 17.8664 39.2854 17.6407C39.3797 17.415 39.426 17.1733 39.4216 16.9299C39.4171 16.6866 39.362 16.4465 39.2596 16.2242C39.1571 16.0019 39.0093 15.8018 38.8251 15.6358L31.3251 8.38585C30.9735 8.04642 30.497 7.85577 30.0001 7.85577C29.5032 7.85577 29.0267 8.04642 28.6751 8.38585L21.1751 15.6358C20.8439 15.9794 20.6636 16.4339 20.6722 16.9034C20.6807 17.373 20.8775 17.821 21.2211 18.1531C21.5646 18.4852 22.028 18.6754 22.5138 18.6837C22.9996 18.692 23.4697 18.5177 23.8251 18.1975L28.1251 14.0408V33.8333C28.1251 34.314 28.3227 34.7751 28.6743 35.115C29.0259 35.4549 29.5028 35.6458 30.0001 35.6458C30.4974 35.6458 30.9743 35.4549 31.3259 35.115C31.6776 34.7751 31.8751 34.314 31.8751 33.8333V14.0408L36.1751 18.1975Z" fill="#F8F8F8"/>
<path d="M51.875 29C51.875 28.5193 51.6775 28.0583 51.3258 27.7184C50.9742 27.3785 50.4973 27.1875 50 27.1875C49.5027 27.1875 49.0258 27.3785 48.6742 27.7184C48.3225 28.0583 48.125 28.5193 48.125 29C48.125 31.3009 47.6562 33.5792 46.7453 35.7049C45.8344 37.8307 44.4994 39.7622 42.8163 41.3891C41.1332 43.0161 39.1352 44.3066 36.9361 45.1872C34.7371 46.0677 32.3802 46.5208 30 46.5208C27.6198 46.5208 25.2629 46.0677 23.0639 45.1872C20.8648 44.3066 18.8668 43.0161 17.1837 41.3891C15.5006 39.7622 14.1655 37.8307 13.2547 35.7049C12.3438 33.5792 11.875 31.3009 11.875 29C11.875 28.5193 11.6775 28.0583 11.3258 27.7184C10.9742 27.3785 10.4973 27.1875 10 27.1875C9.50272 27.1875 9.02581 27.3785 8.67417 27.7184C8.32254 28.0583 8.125 28.5193 8.125 29C8.125 34.6082 10.4297 39.9868 14.532 43.9524C18.6344 47.918 24.1984 50.1458 30 50.1458C35.8016 50.1458 41.3656 47.918 45.468 43.9524C49.5703 39.9868 51.875 34.6082 51.875 29Z" fill="#F8F8F8"/>
</svg>
