<svg width="100" height="100" viewBox="0 0 100 100" fill="none" xmlns="http://www.w3.org/2000/svg">
<path d="M49.2917 37.5L62.5 50.6667V50C62.5 46.6848 61.1831 43.5054 58.8389 41.1612C56.4946 38.817 53.3152 37.5 50 37.5H49.2917ZM31.375 40.8333L37.8334 47.2917C37.625 48.1667 37.5 49.0417 37.5 50C37.5 53.3152 38.817 56.4946 41.1612 58.8388C43.5054 61.183 46.6848 62.5 50 62.5C50.9167 62.5 51.8334 62.375 52.7084 62.1667L59.1667 68.625C56.375 70 53.2917 70.8333 50 70.8333C44.4747 70.8333 39.1756 68.6384 35.2686 64.7314C31.3616 60.8244 29.1667 55.5253 29.1667 50C29.1667 46.7083 30 43.625 31.375 40.8333ZM8.33335 17.7917L17.8334 27.2917L19.7084 29.1667C12.8334 34.5833 7.41669 41.6667 4.16669 50C11.375 68.2917 29.1667 81.25 50 81.25C56.4584 81.25 62.625 80 68.25 77.75L70.0417 79.5L82.2083 91.6667L87.5 86.375L13.625 12.5M50 29.1667C55.5254 29.1667 60.8244 31.3616 64.7314 35.2686C68.6384 39.1756 70.8334 44.4747 70.8334 50C70.8334 52.6667 70.2917 55.25 69.3333 57.5833L81.5417 69.7917C87.7917 64.5833 92.7917 57.75 95.8334 50C88.625 31.7083 70.8334 18.75 50 18.75C44.1667 18.75 38.5834 19.7917 33.3334 21.6667L42.375 30.625C44.75 29.7083 47.2917 29.1667 50 29.1667Z" fill="white"/>
</svg>
