<svg width="60" height="58" viewBox="0 0 60 58" fill="none" xmlns="http://www.w3.org/2000/svg">
<path d="M7.5 29C7.49941 24.502 8.94147 20.1144 11.6276 16.4416C14.3137 12.7687 18.1117 9.9912 22.4987 8.49159C26.8856 6.99198 31.6455 6.84402 36.123 8.06809C40.6005 9.29216 44.5753 11.828 47.5 15.3265" stroke="#F8F8F8" stroke-width="5.20833" stroke-linecap="round" stroke-linejoin="round"/>
<path d="M48.75 7.25V16.9167H38.75M52.5 29C52.5001 33.4978 51.0576 37.885 48.3713 41.5575C45.685 45.23 41.887 48.0071 37.5002 49.5064C33.1134 51.0057 28.3536 51.1535 23.8764 49.9293C19.3991 48.7052 15.4245 46.1694 12.5 42.6711" stroke="#F8F8F8" stroke-width="5.20833" stroke-linecap="round" stroke-linejoin="round"/>
<path d="M11.25 50.75V41.0833H21.25" stroke="#F8F8F8" stroke-width="5.20833" stroke-linecap="round" stroke-linejoin="round"/>
</svg>
