<svg width="96" height="96" viewBox="0 0 96 96" fill="none" xmlns="http://www.w3.org/2000/svg">
<path d="M85.7142 42H80.5713V28.5C80.5713 12.7875 65.957 0 47.9999 0C30.0428 0 15.4285 12.7875 15.4285 28.5V42H10.2856C4.60704 42 -0.000103046 46.0313 -0.000103046 51V87C-0.000103046 91.9688 4.60704 96 10.2856 96H85.7142C91.3927 96 95.9999 91.9688 95.9999 87V51C95.9999 46.0313 91.3927 42 85.7142 42ZM63.4285 42H32.5713V28.5C32.5713 21.0563 39.4928 15 47.9999 15C56.507 15 63.4285 21.0563 63.4285 28.5V42Z" fill="white"/>
</svg>
