<svg width="70" height="68" viewBox="0 0 70 68" fill="none" xmlns="http://www.w3.org/2000/svg">
<g clip-path="url(#clip0_9_2017)">
<path d="M40.8337 22.6667H13.6114C13.0957 22.6667 12.6012 22.4677 12.2365 22.1134C11.8719 21.7592 11.667 21.2787 11.667 20.7778V13.2222C11.667 12.7213 11.8719 12.2408 12.2365 11.8866C12.6012 11.5323 13.0957 11.3333 13.6114 11.3333H40.8337C41.3494 11.3333 41.8439 11.5323 42.2086 11.8866C42.5732 12.2408 42.7781 12.7213 42.7781 13.2222V20.7778C42.7781 21.2787 42.5732 21.7592 42.2086 22.1134C41.8439 22.4677 41.3494 22.6667 40.8337 22.6667ZM15.5559 18.8889H38.8892V14.9978H15.5559V18.8889Z" fill="#ffffff"/>
<path d="M40.8337 26.5956H13.6114C13.0957 26.5956 12.6012 26.7946 12.2365 27.1488C11.8719 27.503 11.667 27.9835 11.667 28.4844V35.8889C11.667 36.3898 11.8719 36.8703 12.2365 37.2245C12.6012 37.5788 13.0957 37.7778 13.6114 37.7778H35.7003L42.7781 30.7889V28.4844C42.7781 27.9835 42.5732 27.503 42.2086 27.1488C41.8439 26.7946 41.3494 26.5956 40.8337 26.5956ZM38.8892 34H15.5559V30.2222H38.8892V34Z" fill="#ffffff"/>
<path d="M21.5053 59.5189V59.4056L22.1276 56.78H7.77756V7.55556H46.6664V26.9167L50.5553 23.3467V5.66668C50.5553 5.16571 50.3505 4.68526 49.9858 4.33103C49.6212 3.97679 49.1266 3.77779 48.6109 3.77779H5.83312C5.31742 3.77779 4.82284 3.97679 4.45819 4.33103C4.09353 4.68526 3.88867 5.16571 3.88867 5.66668V58.5556C3.88867 59.0565 4.09353 59.537 4.45819 59.8912C4.82284 60.2454 5.31742 60.4445 5.83312 60.4445H21.3887C21.4047 60.1336 21.4437 59.8243 21.5053 59.5189Z" fill="#ffffff"/>
<path d="M42.7774 36.21L41.2607 37.7022C41.637 37.6269 41.9819 37.4449 42.2518 37.1793C42.5218 36.9138 42.7046 36.5765 42.7774 36.21Z" fill="#ffffff"/>
<path d="M11.667 50.8867C11.667 51.3876 11.8719 51.8681 12.2365 52.2223C12.6012 52.5765 13.0957 52.7756 13.6114 52.7756H23.0225L23.6059 50.32L23.8587 49.2811V49.1867H15.5559V45.3333H27.8837L31.7725 41.5556H13.6114C13.0957 41.5556 12.6012 41.7546 12.2365 42.1088C11.8719 42.463 11.667 42.9435 11.667 43.4444V50.8867Z" fill="#ffffff"/>
<path d="M65.1196 31.4878L58.5668 25.1222C58.276 24.8389 57.9305 24.6142 57.5502 24.4608C57.1698 24.3075 56.762 24.2285 56.3502 24.2285C55.9383 24.2285 55.5306 24.3075 55.1502 24.4608C54.7698 24.6142 54.4243 24.8389 54.1335 25.1222L27.4752 51.17L25.2779 60.2555C25.1957 60.6475 25.1938 61.0514 25.2725 61.444C25.3512 61.8367 25.5088 62.2104 25.7364 62.5438C25.964 62.8772 26.257 63.1637 26.5988 63.3869C26.9405 63.61 27.3242 63.7655 27.7279 63.8444C27.9284 63.864 28.1303 63.864 28.3307 63.8444C28.569 63.8822 28.8119 63.8822 29.0502 63.8444L38.4807 61.8233L65.1196 35.8889C65.4106 35.608 65.6416 35.274 65.7992 34.906C65.9568 34.5381 66.0379 34.1435 66.0379 33.745C66.0379 33.3465 65.9568 32.9519 65.7992 32.584C65.6416 32.216 65.4106 31.882 65.1196 31.6011V31.4878ZM36.4974 58.3855L29.3807 59.9155L31.1113 53.0589L51.1002 33.4333L56.5835 38.76L36.4974 58.3855ZM58.7807 36.6255L53.2974 31.2989L56.3891 28.3333L61.9113 33.6978L58.7807 36.6255Z" fill="#ffffff"/>
</g>
<defs>
<clipPath id="clip0_9_2017">
<rect width="70" height="68" fill="white"/>
</clipPath>
</defs>
</svg>
